<?xml version="1.0" encoding="UTF-8" standalone="no"?>
<!DOCTYPE svg PUBLIC "-//W3C//DTD SVG 1.1//EN"
 "http://www.w3.org/Graphics/SVG/1.1/DTD/svg11.dtd">
<!-- Generated by graphviz version 2.43.0 (0)
 -->
<!-- Title: CAPTCHA display loop Pages: 1 -->
<svg width="1480pt" height="317pt"
 viewBox="0.00 0.00 1480.00 317.00" xmlns="http://www.w3.org/2000/svg" xmlns:xlink="http://www.w3.org/1999/xlink">
<g id="graph0" class="graph" transform="scale(1 1) rotate(0) translate(4 313)">
<title>CAPTCHA display loop</title>
<polygon fill="white" stroke="transparent" points="-4,4 -4,-313 1476,-313 1476,4 -4,4"/>
<g id="clust1" class="cluster">
<title>cluster_end</title>
</g>
<g id="clust2" class="cluster">
<title>cluster_run</title>
</g>
<g id="clust3" class="cluster">
<title>cluster_solve</title>
</g>
<g id="clust4" class="cluster">
<title>cluster_stop</title>
</g>
<g id="clust5" class="cluster">
<title>cluster_glib</title>
<polygon fill="none" stroke="black" points="169,-80 169,-280 1268,-280 1268,-80 169,-80"/>
</g>
<!-- end -->
<g id="node1" class="node">
<title>end</title>
<ellipse fill="none" stroke="black" cx="1208.5" cy="-40" rx="47.16" ry="18"/>
<text text-anchor="middle" x="1208.5" y="-38.1" font-family="sans-serif" font-size="8.00">GUI loop stopped</text>
</g>
<!-- run -->
<g id="node2" class="node">
<title>run</title>
<polygon fill="none" stroke="black" points="73,-67 16,-67 16,-31 73,-31 73,-67"/>
<text text-anchor="middle" x="44.5" y="-47.1" font-family="sans-serif" font-size="8.00">await run()</text>
</g>
<!-- end&#45;&gt;run -->
<g id="edge13" class="edge">
<title>end&#45;&gt;run</title>
<path fill="none" stroke="black" d="M1169.18,-30.01C1120.3,-18.16 1032.97,0 957,0 237.5,0 237.5,0 237.5,0 182.39,0 121.08,-19.19 82.9,-33.55"/>
<polygon fill="black" stroke="black" points="81.31,-30.41 73.24,-37.26 83.83,-36.94 81.31,-30.41"/>
<text text-anchor="middle" x="602" y="-2.6" font-family="sans-serif" font-size="8.00">gtk_main_quit()</text>
</g>
<!-- _try_show_current_captcha -->
<g id="node5" class="node">
<title>_try_show_current_captcha</title>
<polygon fill="none" stroke="black" points="300,-124 177,-124 177,-88 300,-88 300,-124"/>
<text text-anchor="middle" x="238.5" y="-104.1" font-family="sans-serif" font-size="8.00">_try_show_current_captcha()</text>
</g>
<!-- run&#45;&gt;_try_show_current_captcha -->
<g id="edge1" class="edge">
<title>run&#45;&gt;_try_show_current_captcha</title>
<path fill="none" stroke="black" d="M73.01,-57.17C97.44,-64.42 134.22,-75.34 166.81,-85.01"/>
<polygon fill="black" stroke="black" points="166.19,-88.48 176.77,-87.97 168.18,-81.77 166.19,-88.48"/>
<text text-anchor="middle" x="125" y="-84.6" font-family="sans-serif" font-size="8.00">start the GUI loop</text>
</g>
<!-- solve -->
<g id="node3" class="node">
<title>solve</title>
<polygon fill="none" stroke="black" points="1456,-272 1387,-272 1387,-236 1456,-236 1456,-272"/>
<text text-anchor="middle" x="1421.5" y="-252.1" font-family="sans-serif" font-size="8.00">await solve(...)</text>
</g>
<!-- _try_show_captcha -->
<g id="node6" class="node">
<title>_try_show_captcha</title>
<polygon fill="none" stroke="black" points="516,-232 424,-232 424,-196 516,-196 516,-232"/>
<text text-anchor="middle" x="470" y="-212.1" font-family="sans-serif" font-size="8.00">_try_show_captcha()</text>
</g>
<!-- solve&#45;&gt;_try_show_captcha -->
<g id="edge2" class="edge">
<title>solve&#45;&gt;_try_show_captcha</title>
<path fill="none" stroke="black" d="M1386.64,-266.09C1345.37,-279.71 1273.24,-300 1209.5,-300 733,-300 733,-300 733,-300 651.65,-300 562.86,-262.11 512.35,-236.63"/>
<polygon fill="black" stroke="black" points="513.87,-233.48 503.38,-232.03 510.68,-239.71 513.87,-233.48"/>
<text text-anchor="middle" x="956" y="-302.6" font-family="sans-serif" font-size="8.00">queue a new CAPTCHA</text>
</g>
<!-- stop -->
<g id="node4" class="node">
<title>stop</title>
<polygon fill="none" stroke="black" points="761,-64 707,-64 707,-28 761,-28 761,-64"/>
<text text-anchor="middle" x="734" y="-44.1" font-family="sans-serif" font-size="8.00">stop()</text>
</g>
<!-- idle -->
<g id="node7" class="node">
<title>idle</title>
<ellipse fill="black" stroke="black" cx="956" cy="-106" rx="1.8" ry="1.8"/>
</g>
<!-- stop&#45;&gt;idle -->
<g id="edge3" class="edge">
<title>stop&#45;&gt;idle</title>
<path fill="none" stroke="black" stroke-dasharray="5,2" d="M761.1,-53.12C809.48,-66.31 911.19,-94.05 944.32,-103.09"/>
<polygon fill="black" stroke="black" points="943.56,-106.51 954.13,-105.76 945.4,-99.75 943.56,-106.51"/>
</g>
<!-- _try_show_current_captcha&#45;&gt;_try_show_captcha -->
<g id="edge5" class="edge">
<title>_try_show_current_captcha&#45;&gt;_try_show_captcha</title>
<path fill="none" stroke="black" d="M277.91,-124.08C317.3,-142.61 378.64,-171.48 421.16,-191.49"/>
<polygon fill="black" stroke="black" points="419.92,-194.77 430.46,-195.86 422.9,-188.44 419.92,-194.77"/>
<text text-anchor="middle" x="357.5" y="-181.6" font-family="sans-serif" font-size="8.00">no current CAPTCHA</text>
</g>
<!-- _show_current_captcha -->
<g id="node9" class="node">
<title>_show_current_captcha</title>
<polygon fill="none" stroke="black" points="789,-124 679,-124 679,-88 789,-88 789,-124"/>
<text text-anchor="middle" x="734" y="-104.1" font-family="sans-serif" font-size="8.00">_show_current_captcha()</text>
</g>
<!-- _try_show_current_captcha&#45;&gt;_show_current_captcha -->
<g id="edge4" class="edge">
<title>_try_show_current_captcha&#45;&gt;_show_current_captcha</title>
<path fill="none" stroke="black" d="M300.01,-106C393.63,-106 572.77,-106 668.66,-106"/>
<polygon fill="black" stroke="black" points="668.8,-109.5 678.8,-106 668.8,-102.5 668.8,-109.5"/>
<text text-anchor="middle" x="470" y="-108.6" font-family="sans-serif" font-size="8.00">unfinished current CAPTCHA</text>
</g>
<!-- nop -->
<g id="node8" class="node">
<title>nop</title>
<ellipse fill="none" stroke="black" cx="734" cy="-160" rx="33.43" ry="18"/>
<text text-anchor="middle" x="734" y="-158.1" font-family="sans-serif" font-size="8.00">do nothing</text>
</g>
<!-- _try_show_captcha&#45;&gt;nop -->
<g id="edge8" class="edge">
<title>_try_show_captcha&#45;&gt;nop</title>
<path fill="none" stroke="black" d="M516.04,-204.72C565.65,-194.49 644.72,-178.19 692.47,-168.35"/>
<polygon fill="black" stroke="black" points="693.36,-171.74 702.44,-166.3 691.94,-164.89 693.36,-171.74"/>
<text text-anchor="middle" x="602" y="-200.6" font-family="sans-serif" font-size="8.00">CAPTCHA loop already running</text>
</g>
<!-- _try_show_captcha&#45;&gt;_show_current_captcha -->
<g id="edge7" class="edge">
<title>_try_show_captcha&#45;&gt;_show_current_captcha</title>
<path fill="none" stroke="black" d="M492.14,-195.78C505.87,-184.71 524.59,-171.03 543,-162 582.96,-142.4 631.08,-128.3 668.9,-119.15"/>
<polygon fill="black" stroke="black" points="669.85,-122.53 678.78,-116.82 668.24,-115.71 669.85,-122.53"/>
<text text-anchor="middle" x="602" y="-164.6" font-family="sans-serif" font-size="8.00">set current CAPTCHA</text>
</g>
<!-- _close -->
<g id="node10" class="node">
<title>_close</title>
<polygon fill="none" stroke="black" points="761,-232 707,-232 707,-196 761,-196 761,-232"/>
<text text-anchor="middle" x="734" y="-212.1" font-family="sans-serif" font-size="8.00">_close()</text>
</g>
<!-- _try_show_captcha&#45;&gt;_close -->
<g id="edge6" class="edge">
<title>_try_show_captcha&#45;&gt;_close</title>
<path fill="none" stroke="black" d="M516.04,-214C567.18,-214 649.62,-214 696.79,-214"/>
<polygon fill="black" stroke="black" points="696.85,-217.5 706.85,-214 696.85,-210.5 696.85,-217.5"/>
<text text-anchor="middle" x="602" y="-216.6" font-family="sans-serif" font-size="8.00">no more CAPTCHAs queued</text>
</g>
<!-- idle&#45;&gt;end -->
<g id="edge12" class="edge">
<title>idle&#45;&gt;end</title>
<path fill="none" stroke="black" stroke-dasharray="5,2" d="M958.12,-105.71C970.92,-102.33 1090.71,-70.77 1159.5,-52.65"/>
<polygon fill="black" stroke="black" points="1160.48,-56.01 1169.26,-50.08 1158.69,-49.24 1160.48,-56.01"/>
<text text-anchor="middle" x="1078.5" y="-90.6" font-family="sans-serif" font-size="8.00">stop called</text>
</g>
<!-- _on_window_closed -->
<g id="node11" class="node">
<title>_on_window_closed</title>
<polygon fill="none" stroke="black" points="1259.5,-218 1157.5,-218 1157.5,-182 1259.5,-182 1259.5,-218"/>
<text text-anchor="middle" x="1208.5" y="-198.1" font-family="sans-serif" font-size="8.00">_on_window_closed(...)</text>
</g>
<!-- idle&#45;&gt;_on_window_closed -->
<g id="edge10" class="edge">
<title>idle&#45;&gt;_on_window_closed</title>
<path fill="none" stroke="black" stroke-dasharray="5,2" d="M958.18,-106.32C969.81,-109.47 1065.14,-135.67 1139,-166 1147.3,-169.41 1155.99,-173.38 1164.29,-177.39"/>
<polygon fill="black" stroke="black" points="1162.93,-180.63 1173.44,-181.9 1166.02,-174.35 1162.93,-180.63"/>
<text text-anchor="middle" x="1078.5" y="-168.6" font-family="sans-serif" font-size="8.00">user closes the WebKit window</text>
</g>
<!-- _on_script_message -->
<g id="node12" class="node">
<title>_on_script_message</title>
<polygon fill="none" stroke="black" points="1260,-272 1157,-272 1157,-236 1260,-236 1260,-272"/>
<text text-anchor="middle" x="1208.5" y="-252.1" font-family="sans-serif" font-size="8.00">_on_script_message(...)</text>
</g>
<!-- idle&#45;&gt;_on_script_message -->
<g id="edge11" class="edge">
<title>idle&#45;&gt;_on_script_message</title>
<path fill="none" stroke="black" stroke-dasharray="5,2" d="M957.71,-107.14C962.24,-114.28 987.83,-153.42 1018,-175 1057.29,-203.1 1108.08,-223.59 1147.19,-236.65"/>
<polygon fill="black" stroke="black" points="1146.28,-240.03 1156.87,-239.81 1148.45,-233.38 1146.28,-240.03"/>
<text text-anchor="middle" x="1078.5" y="-234.6" font-family="sans-serif" font-size="8.00">CAPTCHA is solved (by the user)</text>
</g>
<!-- _show_current_captcha&#45;&gt;idle -->
<g id="edge9" class="edge">
<title>_show_current_captcha&#45;&gt;idle</title>
<path fill="none" stroke="black" stroke-dasharray="5,2" d="M789.1,-106C850.17,-106 942.54,-106 953.85,-106"/>
</g>
<!-- _on_window_closed&#45;&gt;solve -->
<g id="edge15" class="edge">
<title>_on_window_closed&#45;&gt;solve</title>
<path fill="none" stroke="black" d="M1259.5,-212.8C1295.33,-221.97 1343.09,-234.19 1377.27,-242.94"/>
<polygon fill="black" stroke="black" points="1376.42,-246.33 1386.97,-245.42 1378.15,-239.55 1376.42,-246.33"/>
<text text-anchor="middle" x="1323.5" y="-241.6" font-family="sans-serif" font-size="8.00">future.set_exception(...)</text>
</g>
<!-- _on_window_closed&#45;&gt;_try_show_captcha -->
<g id="edge14" class="edge">
<title>_on_window_closed&#45;&gt;_try_show_captcha</title>
<path fill="none" stroke="black" d="M1166.88,-218.04C1157.87,-221.29 1148.24,-224.22 1139,-226 994.09,-253.93 950.32,-196.8 807,-232 798.31,-234.13 797.71,-238.95 789,-241 741.42,-252.23 727.82,-243.51 679,-241 618.32,-237.88 603.16,-235.52 543,-227 537.58,-226.23 531.94,-225.35 526.31,-224.43"/>
<polygon fill="black" stroke="black" points="526.68,-220.94 516.24,-222.71 525.51,-227.84 526.68,-220.94"/>
<text text-anchor="middle" x="850.5" y="-234.6" font-family="sans-serif" font-size="8.00">process next CAPTCHA</text>
</g>
<!-- _on_script_message&#45;&gt;solve -->
<g id="edge17" class="edge">
<title>_on_script_message&#45;&gt;solve</title>
<path fill="none" stroke="black" d="M1260.04,-254C1295.62,-254 1342.76,-254 1376.74,-254"/>
<polygon fill="black" stroke="black" points="1376.83,-257.5 1386.83,-254 1376.83,-250.5 1376.83,-257.5"/>
<text text-anchor="middle" x="1323.5" y="-256.6" font-family="sans-serif" font-size="8.00">future.set_result(...)</text>
</g>
<!-- _on_script_message&#45;&gt;_try_show_captcha -->
<g id="edge16" class="edge">
<title>_on_script_message&#45;&gt;_try_show_captcha</title>
<path fill="none" stroke="black" d="M1156.82,-254.47C1062.66,-255.11 854.33,-255.43 679,-248 618.45,-245.43 602.43,-249.9 543,-238 537.51,-236.9 531.86,-235.51 526.25,-233.94"/>
<polygon fill="black" stroke="black" points="526.83,-230.46 516.24,-230.97 524.84,-237.17 526.83,-230.46"/>
<text text-anchor="middle" x="850.5" y="-255.6" font-family="sans-serif" font-size="8.00">process next CAPTCHA</text>
</g>
</g>
</svg>
